<?xml version="1.0" standalone="no"?><!DOCTYPE svg PUBLIC "-//W3C//DTD SVG 1.1//EN" "http://www.w3.org/Graphics/SVG/1.1/DTD/svg11.dtd"><svg t="1608275037075" class="icon" viewBox="0 0 1024 1024" version="1.1" xmlns="http://www.w3.org/2000/svg" p-id="1356" xmlns:xlink="http://www.w3.org/1999/xlink" width="200" height="200"><defs><style type="text/css"></style></defs><path d="M891.0336 879.3088H134.6048c-11.3152 0-20.48-9.1648-20.48-20.48v-222.72h797.3376v222.72c0.0512 11.3152-9.1648 20.48-20.4288 20.48z" fill="#DCEDFF" p-id="1357"></path><path d="M891.0336 124.0576H134.6048c-25.3952 0-46.08 20.6848-46.08 46.08v688.64c0 25.3952 20.6848 46.08 46.08 46.08h756.3776c25.3952 0 46.08-20.6848 46.08-46.08V170.1376c0.0512-25.3952-20.6336-46.08-46.0288-46.08zM139.7248 418.4576h746.1376v192H139.7248v-192z m0-243.2h746.1376v192H139.7248v-192z m746.1888 678.4512H139.7248v-192h746.1376v192z" fill="#5B90EF" p-id="1358"></path><path d="M749.9776 267.9808m-31.3344 0a31.3344 31.3344 0 1 0 62.6688 0 31.3344 31.3344 0 1 0-62.6688 0Z" fill="#6491F2" p-id="1359"></path><path d="M749.9776 514.4576m-31.3344 0a31.3344 31.3344 0 1 0 62.6688 0 31.3344 31.3344 0 1 0-62.6688 0Z" fill="#6491F2" p-id="1360"></path><path d="M749.9776 757.7088m-31.3344 0a31.3344 31.3344 0 1 0 62.6688 0 31.3344 31.3344 0 1 0-62.6688 0Z" fill="#6491F2" p-id="1361"></path></svg>