<?xml version="1.0" standalone="no"?><!DOCTYPE svg PUBLIC "-//W3C//DTD SVG 1.1//EN" "http://www.w3.org/Graphics/SVG/1.1/DTD/svg11.dtd"><svg t="1608275045653" class="icon" viewBox="0 0 1024 1024" version="1.1" xmlns="http://www.w3.org/2000/svg" p-id="1493" xmlns:xlink="http://www.w3.org/1999/xlink" width="200" height="200"><defs><style type="text/css"></style></defs><path d="M912.5376 740.9664v-83.3024h-47.4112c-3.8912-15.104-9.9328-29.3376-17.664-42.4448l33.5872-33.5872-58.88-58.88-33.5872 33.5872a165.97504 165.97504 0 0 0-42.4448-17.664v-47.4112h-83.3024v47.4112c-15.104 3.8912-29.3376 9.9328-42.4448 17.664l-33.5872-33.5872-58.88 58.88 33.5872 33.5872a164.0448 164.0448 0 0 0-17.6128 42.4448h-47.4112v83.3024h47.4112c3.8912 15.104 9.9328 29.3376 17.6128 42.4448l-33.5872 33.5872 58.88 58.88 33.5872-33.5872c13.1072 7.7312 27.3408 13.7216 42.4448 17.664v47.4112h83.3024v-47.4112c15.104-3.8912 29.3376-9.9328 42.4448-17.664l33.5872 33.5872 58.88-58.88-33.5872-33.5872c7.7312-13.1072 13.7216-27.3408 17.664-42.4448h47.4112z m-207.4624 26.624c-36.5056 0-66.048-29.5936-66.048-66.048s29.5936-66.048 66.048-66.048c36.5056 0 66.048 29.5936 66.048 66.048s-29.5936 66.048-66.048 66.048z" fill="#DCEDFF" p-id="1494"></path><path d="M912.5376 632.064h-28.7232c-1.536-4.0448-3.1744-8.0896-5.0176-12.032l20.3264-20.3264a25.61536 25.61536 0 0 0 0-36.1984l-58.88-58.88a25.61536 25.61536 0 0 0-36.1984 0l-20.3264 20.3264c-3.9424-1.792-7.9872-3.4816-12.032-5.0176v-28.7232c0-14.1312-11.4688-25.6-25.6-25.6h-83.3024c-14.1312 0-25.6 11.4688-25.6 25.6v28.7232c-4.0448 1.536-8.0896 3.1744-12.032 5.0176l-20.3264-20.3264a25.61536 25.61536 0 0 0-36.1984 0l-58.88 58.88a25.61536 25.61536 0 0 0 0 36.1984l20.3264 20.3264c-1.792 3.9424-3.4816 7.9872-5.0176 12.032h-28.7232c-14.1312 0-25.6 11.4688-25.6 25.6v83.3024c0 14.1312 11.4688 25.6 25.6 25.6h28.7232c1.536 4.0448 3.1744 8.0384 5.0176 12.032l-20.3264 20.3264a25.61536 25.61536 0 0 0 0 36.1984l58.88 58.88a25.61536 25.61536 0 0 0 36.1984 0l20.3264-20.3264c3.9424 1.792 7.936 3.4816 12.032 5.0176v28.7232c0 14.1312 11.4688 25.6 25.6 25.6h83.3024c14.1312 0 25.6-11.4688 25.6-25.6v-28.7232c4.0448-1.536 8.0896-3.1744 12.032-5.0176l20.3264 20.3264a25.61536 25.61536 0 0 0 36.1984 0l58.88-58.88a25.61536 25.61536 0 0 0 0-36.1984l-20.3264-20.3264c1.792-3.9424 3.4816-7.936 5.0176-12.032h28.7232c14.1312 0 25.6-11.4688 25.6-25.6v-83.3024c0-14.1312-11.4688-25.6-25.6-25.6z m-25.6 83.3024h-21.8112c-11.6736 0-21.8624 7.8848-24.7808 19.2-3.2256 12.4928-8.2432 24.576-14.8992 35.84a25.6512 25.6512 0 0 0 3.9424 31.1296l15.4624 15.4624-22.6816 22.6816-15.4624-15.4624a25.63072 25.63072 0 0 0-31.1296-3.9424c-11.3152 6.656-23.3472 11.6736-35.8912 14.8992a25.57952 25.57952 0 0 0-19.2 24.7808v21.8112h-32.1024v-21.8112c0-11.6736-7.8848-21.8624-19.2-24.7808-12.4928-3.2256-24.576-8.2432-35.8912-14.8992a25.56416 25.56416 0 0 0-31.0784 3.9424L586.752 839.68l-22.6816-22.6816 15.4624-15.4624a25.63072 25.63072 0 0 0 3.9424-31.1296c-6.656-11.3152-11.6736-23.3472-14.8992-35.84a25.57952 25.57952 0 0 0-24.7808-19.2h-21.8112v-32.1024h21.8112c11.6736 0 21.8624-7.8848 24.7808-19.2 3.2256-12.4928 8.2432-24.576 14.8992-35.84a25.6512 25.6512 0 0 0-3.9424-31.1296l-15.4624-15.4624 22.6816-22.6816 15.4624 15.4624a25.56416 25.56416 0 0 0 31.0784 3.9424c11.3152-6.656 23.3472-11.6736 35.8912-14.8992a25.57952 25.57952 0 0 0 19.2-24.7808v-21.8112h32.1024v21.8112c0 11.6736 7.8848 21.8624 19.2 24.7808 12.4928 3.2256 24.576 8.2432 35.8912 14.8992 10.0864 5.9392 22.8352 4.3008 31.1296-3.9424l15.4624-15.4624 22.6816 22.6816-15.4624 15.4624a25.63072 25.63072 0 0 0-3.9424 31.1296c6.656 11.3152 11.6736 23.3472 14.8992 35.8912a25.57952 25.57952 0 0 0 24.7808 19.2h21.8112v32.0512z" fill="#5B90EF" p-id="1495"></path><path d="M137.0624 840.192c0-190.7712 155.2384-346.0096 346.0096-346.0096v-0.0512c0.8192 0 1.5872 0.0512 2.3552 0.0512 111.616 0 202.3936-90.7776 202.3936-202.3936s-90.7776-202.3936-202.3936-202.3936-202.3936 90.7776-202.3936 202.3936c0 69.4272 35.1232 130.7648 88.5248 167.2192-164.9152 48.3328-285.696 200.8576-285.696 381.184v23.2448c0 25.856 21.0432 46.8992 46.8992 46.8992h363.776v-51.2H137.0624v-18.944zM334.2336 291.84c0-83.3536 67.84-151.1936 151.1936-151.1936S636.6208 208.4352 636.6208 291.84s-67.84 151.1936-151.1936 151.1936S334.2336 375.1936 334.2336 291.84z" fill="#5B90EF" p-id="1496"></path><path d="M705.0752 793.1904c-50.5344 0-91.648-41.1136-91.648-91.648s41.1136-91.648 91.648-91.648 91.648 41.1136 91.648 91.648-41.1136 91.648-91.648 91.648z m0-132.1472c-22.3232 0-40.448 18.1248-40.448 40.448s18.1248 40.448 40.448 40.448 40.448-18.1248 40.448-40.448-18.176-40.448-40.448-40.448z" fill="#5B90EF" p-id="1497"></path></svg>