<?xml version="1.0" encoding="UTF-8" standalone="no"?>
<svg
   xmlns:dc="http://purl.org/dc/elements/1.1/"
   xmlns:cc="http://creativecommons.org/ns#"
   xmlns:rdf="http://www.w3.org/1999/02/22-rdf-syntax-ns#"
   xmlns:svg="http://www.w3.org/2000/svg"
   xmlns="http://www.w3.org/2000/svg"
   xmlns:sodipodi="http://sodipodi.sourceforge.net/DTD/sodipodi-0.dtd"
   xmlns:inkscape="http://www.inkscape.org/namespaces/inkscape"
   t="1608275037075"
   class="icon"
   viewBox="0 0 1024 1024"
   version="1.1"
   p-id="1356"
   width="200"
   height="200"
   id="svg16"
   sodipodi:docname="users.svg"
   inkscape:version="1.0.1 (3bc2e813f5, 2020-09-07)">
  <metadata
     id="metadata20">
    <rdf:RDF>
      <cc:Work
         rdf:about="">
        <dc:format>image/svg+xml</dc:format>
        <dc:type
           rdf:resource="http://purl.org/dc/dcmitype/StillImage" />
        <dc:title />
      </cc:Work>
    </rdf:RDF>
  </metadata>
  <sodipodi:namedview
     pagecolor="#ffffff"
     bordercolor="#666666"
     borderopacity="1"
     objecttolerance="10"
     gridtolerance="10"
     guidetolerance="10"
     inkscape:pageopacity="0"
     inkscape:pageshadow="2"
     inkscape:window-width="1920"
     inkscape:window-height="1014"
     id="namedview18"
     showgrid="false"
     showguides="true"
     inkscape:guide-bbox="true"
     inkscape:zoom="4.2039801"
     inkscape:cx="71.373492"
     inkscape:cy="57.289295"
     inkscape:window-x="0"
     inkscape:window-y="0"
     inkscape:window-maximized="1"
     inkscape:current-layer="svg16"
     inkscape:document-rotation="0">
    <sodipodi:guide
       position="88.235141,509.50214"
       orientation="1,0"
       id="guide845" />
    <sodipodi:guide
       position="891.0336,899.9424"
       orientation="0,-1"
       id="guide847" />
    <sodipodi:guide
       position="936.877,163.70738"
       orientation="1,0"
       id="guide849" />
    <sodipodi:guide
       position="862.72,119.04"
       orientation="0,-1"
       id="guide851" />
  </sodipodi:namedview>
  <defs
     id="defs4">
    <style
       type="text/css"
       id="style2" />
  </defs>
  <path
     id="circle842"
     style="fill:none;stroke:#dee7ff;stroke-width:66.56;stroke-linecap:round;stroke-linejoin:round;stroke-opacity:0.57823128"
     d="m 122.43466,785.54035 c 0,-89.15942 47.56598,-171.54613 124.78031,-216.12584 77.21433,-44.57971 172.3463,-44.57971 249.56063,0 77.21433,44.57971 124.78031,126.96642 124.78031,216.12584 m -62.00502,-436.8556 a 187.5556,187.5556 0 0 1 -187.55561,187.55561 187.5556,187.5556 0 0 1 -187.5556,-187.55561 187.5556,187.5556 0 0 1 187.5556,-187.5556 187.5556,187.5556 0 0 1 187.55561,187.5556 z" />
  <path
     id="path1130"
     style="fill:none;stroke:#dee7ff;stroke-width:66.56;stroke-linecap:round;stroke-linejoin:round"
     d="m 401.45722,868.2137 c 0,-89.15942 47.56598,-171.54613 124.78031,-216.12584 77.21433,-44.57971 172.3463,-44.57971 249.56063,0 77.21433,44.57971 124.78031,126.96642 124.78031,216.12584 M 838.57345,431.3581 A 187.5556,187.5556 0 0 1 651.01784,618.91371 187.5556,187.5556 0 0 1 463.46224,431.3581 187.5556,187.5556 0 0 1 651.01784,243.8025 187.5556,187.5556 0 0 1 838.57345,431.3581 Z" />
</svg>
