<?xml version="1.0" standalone="no"?><!DOCTYPE svg PUBLIC "-//W3C//DTD SVG 1.1//EN" "http://www.w3.org/Graphics/SVG/1.1/DTD/svg11.dtd"><svg t="1608275115993" class="icon" viewBox="0 0 1024 1024" version="1.1" xmlns="http://www.w3.org/2000/svg" p-id="1641" xmlns:xlink="http://www.w3.org/1999/xlink" width="200" height="200"><defs><style type="text/css"></style></defs><path d="M108.4928 578.8672h815.2576v276.5824H108.4928z" fill="#DCEDFF" p-id="1642"></path><path d="M903.3216 881.0496H120.6784c-25.3952 0-46.08-20.6848-46.08-46.08V181.7088c0-25.3952 20.6848-46.08 46.08-46.08h348.16c16.3328 0 31.5904 8.7552 39.8336 22.8864l58.2656 99.9936h336.384c25.3952 0 46.08 20.6848 46.08 46.08v530.432c0 25.3952-20.6848 46.0288-46.08 46.0288z m-777.5232-51.2h772.352V309.7088h-334.2336c-16.3328 0-31.5904-8.7552-39.8336-22.8864L465.92 186.8288H125.7984v643.0208z" fill="#5B90EF" p-id="1643"></path><path d="M403.5072 453.8368h326.8096v51.2H403.5072zM403.5072 632.6784h181.0432v51.2H403.5072zM272.5376 454.6048H345.088v51.2H272.5376zM272.5376 632.6784H345.088v51.2H272.5376z" fill="#5B90EF" p-id="1644"></path></svg>